<svg xmlns="http://www.w3.org/2000/svg" version="1.1" xmlns:xlink="http://www.w3.org/1999/xlink" xmlns:svgjs="http://svgjs.com/svgjs" width="1440" height="560" preserveAspectRatio="none" viewBox="0 0 1440 560"><g mask="url(&quot;#SvgjsMask1000&quot;)" fill="none"><rect width="1440" height="560" x="0" y="0" fill="#0e2a47"></rect><path d="M-59.96 385.87L-59.96 385.87" stroke="#132e65" stroke-width="1.5"></path><path d="M-59.96 385.87L-76.61 501.75" stroke="#132e65" stroke-width="1.5"></path><path d="M-59.96 385.87L100.8 544.96" stroke="#132e65" stroke-width="1.5"></path><path d="M-59.96 385.87L-100.31 638" stroke="#132e65" stroke-width="1.5"></path><path d="M-59.96 385.87L39.24 641.94" stroke="#132e65" stroke-width="1.5"></path><path d="M-76.61 501.75L-76.61 501.75" stroke="#132e65" stroke-width="1.5"></path><path d="M-100.31 638L-100.31 638" stroke="#132e65" stroke-width="1.5"></path><path d="M-100.31 638L-76.61 501.75" stroke="#132e65" stroke-width="1.5"></path><path d="M-100.31 638L39.24 641.94" stroke="#132e65" stroke-width="1.5"></path><path d="M-100.31 638L100.8 544.96" stroke="#132e65" stroke-width="1.5"></path><path d="M100.8 544.96L100.8 544.96" stroke="#132e65" stroke-width="1.5"></path><path d="M100.8 544.96L39.24 641.94" stroke="#132e65" stroke-width="1.5"></path><path d="M100.8 544.96L261.17 505.64" stroke="#132e65" stroke-width="1.5"></path><path d="M100.8 544.96L-76.61 501.75" stroke="#132e65" stroke-width="1.5"></path><path d="M100.8 544.96L258.31 662.77" stroke="#132e65" stroke-width="1.5"></path><path d="M39.24 641.94L39.24 641.94" stroke="#132e65" stroke-width="1.5"></path><path d="M39.24 641.94L-76.61 501.75" stroke="#132e65" stroke-width="1.5"></path><path d="M39.24 641.94L258.31 662.77" stroke="#132e65" stroke-width="1.5"></path><path d="M39.24 641.94L261.17 505.64" stroke="#132e65" stroke-width="1.5"></path><path d="M213.05 350.29L213.05 350.29" stroke="#132e65" stroke-width="1.5"></path><path d="M213.05 350.29L261.17 505.64" stroke="#132e65" stroke-width="1.5"></path><path d="M213.05 350.29L410.14 339.94" stroke="#132e65" stroke-width="1.5"></path><path d="M213.05 350.29L350.42 510.41" stroke="#132e65" stroke-width="1.5"></path><path d="M213.05 350.29L100.8 544.96" stroke="#132e65" stroke-width="1.5"></path><path d="M213.05 350.29L-59.96 385.87" stroke="#132e65" stroke-width="1.5"></path><path d="M213.05 350.29L519.31 383.13" stroke="#132e65" stroke-width="1.5"></path><path d="M261.17 505.64L261.17 505.64" stroke="#132e65" stroke-width="1.5"></path><path d="M261.17 505.64L350.42 510.41" stroke="#132e65" stroke-width="1.5"></path><path d="M261.17 505.64L258.31 662.77" stroke="#132e65" stroke-width="1.5"></path><path d="M261.17 505.64L410.14 339.94" stroke="#132e65" stroke-width="1.5"></path><path d="M258.31 662.77L258.31 662.77" stroke="#132e65" stroke-width="1.5"></path><path d="M258.31 662.77L411.52 697.11" stroke="#132e65" stroke-width="1.5"></path><path d="M410.14 339.94L410.14 339.94" stroke="#132e65" stroke-width="1.5"></path><path d="M410.14 339.94L519.31 383.13" stroke="#132e65" stroke-width="1.5"></path><path d="M410.14 339.94L350.42 510.41" stroke="#132e65" stroke-width="1.5"></path><path d="M410.14 339.94L510.84 499.12" stroke="#132e65" stroke-width="1.5"></path><path d="M410.14 339.94L660.55 385.91" stroke="#132e65" stroke-width="1.5"></path><path d="M350.42 510.41L350.42 510.41" stroke="#132e65" stroke-width="1.5"></path><path d="M350.42 510.41L510.84 499.12" stroke="#132e65" stroke-width="1.5"></path><path d="M350.42 510.41L258.31 662.77" stroke="#132e65" stroke-width="1.5"></path><path d="M411.52 697.11L411.52 697.11" stroke="#132e65" stroke-width="1.5"></path><path d="M411.52 697.11L553.07 643.12" stroke="#132e65" stroke-width="1.5"></path><path d="M411.52 697.11L350.42 510.41" stroke="#132e65" stroke-width="1.5"></path><path d="M519.31 383.13L519.31 383.13" stroke="#132e65" stroke-width="1.5"></path><path d="M519.31 383.13L510.84 499.12" stroke="#132e65" stroke-width="1.5"></path><path d="M519.31 383.13L660.55 385.91" stroke="#132e65" stroke-width="1.5"></path><path d="M510.84 499.12L510.84 499.12" stroke="#132e65" stroke-width="1.5"></path><path d="M510.84 499.12L553.07 643.12" stroke="#132e65" stroke-width="1.5"></path><path d="M553.07 643.12L553.07 643.12" stroke="#132e65" stroke-width="1.5"></path><path d="M553.07 643.12L690.83 649.18" stroke="#132e65" stroke-width="1.5"></path><path d="M553.07 643.12L699.75 541.65" stroke="#132e65" stroke-width="1.5"></path><path d="M553.07 643.12L350.42 510.41" stroke="#132e65" stroke-width="1.5"></path><path d="M660.55 385.91L660.55 385.91" stroke="#132e65" stroke-width="1.5"></path><path d="M660.55 385.91L811.41 345.94" stroke="#132e65" stroke-width="1.5"></path><path d="M660.55 385.91L699.75 541.65" stroke="#132e65" stroke-width="1.5"></path><path d="M660.55 385.91L510.84 499.12" stroke="#132e65" stroke-width="1.5"></path><path d="M699.75 541.65L699.75 541.65" stroke="#132e65" stroke-width="1.5"></path><path d="M699.75 541.65L793.17 535.38" stroke="#132e65" stroke-width="1.5"></path><path d="M699.75 541.65L690.83 649.18" stroke="#132e65" stroke-width="1.5"></path><path d="M690.83 649.18L690.83 649.18" stroke="#132e65" stroke-width="1.5"></path><path d="M690.83 649.18L802.91 653.49" stroke="#132e65" stroke-width="1.5"></path><path d="M690.83 649.18L793.17 535.38" stroke="#132e65" stroke-width="1.5"></path><path d="M690.83 649.18L510.84 499.12" stroke="#132e65" stroke-width="1.5"></path><path d="M690.83 649.18L660.55 385.91" stroke="#132e65" stroke-width="1.5"></path><path d="M861.71 189.53L861.71 189.53" stroke="#132e65" stroke-width="1.5"></path><path d="M861.71 189.53L994.22 194.99" stroke="#132e65" stroke-width="1.5"></path><path d="M861.71 189.53L964.76 65.62" stroke="#132e65" stroke-width="1.5"></path><path d="M811.41 345.94L811.41 345.94" stroke="#132e65" stroke-width="1.5"></path><path d="M811.41 345.94L861.71 189.53" stroke="#132e65" stroke-width="1.5"></path><path d="M811.41 345.94L793.17 535.38" stroke="#132e65" stroke-width="1.5"></path><path d="M811.41 345.94L1000.54 409.1" stroke="#132e65" stroke-width="1.5"></path><path d="M811.41 345.94L699.75 541.65" stroke="#132e65" stroke-width="1.5"></path><path d="M811.41 345.94L994.22 194.99" stroke="#132e65" stroke-width="1.5"></path><path d="M793.17 535.38L793.17 535.38" stroke="#132e65" stroke-width="1.5"></path><path d="M793.17 535.38L802.91 653.49" stroke="#132e65" stroke-width="1.5"></path><path d="M793.17 535.38L951.55 545.13" stroke="#132e65" stroke-width="1.5"></path><path d="M793.17 535.38L660.55 385.91" stroke="#132e65" stroke-width="1.5"></path><path d="M802.91 653.49L802.91 653.49" stroke="#132e65" stroke-width="1.5"></path><path d="M802.91 653.49L699.75 541.65" stroke="#132e65" stroke-width="1.5"></path><path d="M970.84 -56.14L970.84 -56.14" stroke="#132e65" stroke-width="1.5"></path><path d="M970.84 -56.14L964.76 65.62" stroke="#132e65" stroke-width="1.5"></path><path d="M970.84 -56.14L1138.65 -46.71" stroke="#132e65" stroke-width="1.5"></path><path d="M970.84 -56.14L1152.51 75.4" stroke="#132e65" stroke-width="1.5"></path><path d="M970.84 -56.14L994.22 194.99" stroke="#132e65" stroke-width="1.5"></path><path d="M970.84 -56.14L861.71 189.53" stroke="#132e65" stroke-width="1.5"></path><path d="M964.76 65.62L964.76 65.62" stroke="#132e65" stroke-width="1.5"></path><path d="M964.76 65.62L994.22 194.99" stroke="#132e65" stroke-width="1.5"></path><path d="M994.22 194.99L994.22 194.99" stroke="#132e65" stroke-width="1.5"></path><path d="M1000.54 409.1L1000.54 409.1" stroke="#132e65" stroke-width="1.5"></path><path d="M1000.54 409.1L1109.33 358.06" stroke="#132e65" stroke-width="1.5"></path><path d="M951.55 545.13L951.55 545.13" stroke="#132e65" stroke-width="1.5"></path><path d="M951.55 545.13L1000.54 409.1" stroke="#132e65" stroke-width="1.5"></path><path d="M951.55 545.13L977.24 691.09" stroke="#132e65" stroke-width="1.5"></path><path d="M977.24 691.09L977.24 691.09" stroke="#132e65" stroke-width="1.5"></path><path d="M977.24 691.09L1150.05 698.34" stroke="#132e65" stroke-width="1.5"></path><path d="M977.24 691.09L802.91 653.49" stroke="#132e65" stroke-width="1.5"></path><path d="M977.24 691.09L793.17 535.38" stroke="#132e65" stroke-width="1.5"></path><path d="M1138.65 -46.71L1138.65 -46.71" stroke="#132e65" stroke-width="1.5"></path><path d="M1138.65 -46.71L1152.51 75.4" stroke="#132e65" stroke-width="1.5"></path><path d="M1138.65 -46.71L1290.89 -107.42" stroke="#132e65" stroke-width="1.5"></path><path d="M1152.51 75.4L1152.51 75.4" stroke="#132e65" stroke-width="1.5"></path><path d="M1152.51 75.4L1260.64 102.16" stroke="#132e65" stroke-width="1.5"></path><path d="M1152.51 75.4L1135.39 206.71" stroke="#132e65" stroke-width="1.5"></path><path d="M1152.51 75.4L1260.44 192.4" stroke="#132e65" stroke-width="1.5"></path><path d="M1152.51 75.4L964.76 65.62" stroke="#132e65" stroke-width="1.5"></path><path d="M1135.39 206.71L1135.39 206.71" stroke="#132e65" stroke-width="1.5"></path><path d="M1135.39 206.71L1260.44 192.4" stroke="#132e65" stroke-width="1.5"></path><path d="M1135.39 206.71L994.22 194.99" stroke="#132e65" stroke-width="1.5"></path><path d="M1135.39 206.71L1109.33 358.06" stroke="#132e65" stroke-width="1.5"></path><path d="M1109.33 358.06L1109.33 358.06" stroke="#132e65" stroke-width="1.5"></path><path d="M1109.33 358.06L1125.94 490.24" stroke="#132e65" stroke-width="1.5"></path><path d="M1109.33 358.06L1295.81 376.4" stroke="#132e65" stroke-width="1.5"></path><path d="M1125.94 490.24L1125.94 490.24" stroke="#132e65" stroke-width="1.5"></path><path d="M1125.94 490.24L1000.54 409.1" stroke="#132e65" stroke-width="1.5"></path><path d="M1125.94 490.24L951.55 545.13" stroke="#132e65" stroke-width="1.5"></path><path d="M1125.94 490.24L1295.81 376.4" stroke="#132e65" stroke-width="1.5"></path><path d="M1150.05 698.34L1150.05 698.34" stroke="#132e65" stroke-width="1.5"></path><path d="M1150.05 698.34L1310.98 672.02" stroke="#132e65" stroke-width="1.5"></path><path d="M1150.05 698.34L1125.94 490.24" stroke="#132e65" stroke-width="1.5"></path><path d="M1150.05 698.34L1400.01 708.23" stroke="#132e65" stroke-width="1.5"></path><path d="M1150.05 698.34L951.55 545.13" stroke="#132e65" stroke-width="1.5"></path><path d="M1290.89 -107.42L1290.89 -107.42" stroke="#132e65" stroke-width="1.5"></path><path d="M1290.89 -107.42L1429.56 -66.85" stroke="#132e65" stroke-width="1.5"></path><path d="M1290.89 -107.42L1260.64 102.16" stroke="#132e65" stroke-width="1.5"></path><path d="M1290.89 -107.42L1438.56 46.31" stroke="#132e65" stroke-width="1.5"></path><path d="M1290.89 -107.42L1152.51 75.4" stroke="#132e65" stroke-width="1.5"></path><path d="M1260.64 102.16L1260.64 102.16" stroke="#132e65" stroke-width="1.5"></path><path d="M1260.64 102.16L1260.44 192.4" stroke="#132e65" stroke-width="1.5"></path><path d="M1260.64 102.16L1135.39 206.71" stroke="#132e65" stroke-width="1.5"></path><path d="M1260.44 192.4L1260.44 192.4" stroke="#132e65" stroke-width="1.5"></path><path d="M1260.44 192.4L1295.81 376.4" stroke="#132e65" stroke-width="1.5"></path><path d="M1295.81 376.4L1295.81 376.4" stroke="#132e65" stroke-width="1.5"></path><path d="M1310.98 672.02L1310.98 672.02" stroke="#132e65" stroke-width="1.5"></path><path d="M1310.98 672.02L1400.01 708.23" stroke="#132e65" stroke-width="1.5"></path><path d="M1310.98 672.02L1440.66 553.49" stroke="#132e65" stroke-width="1.5"></path><path d="M1310.98 672.02L1125.94 490.24" stroke="#132e65" stroke-width="1.5"></path><path d="M1310.98 672.02L1554.48 531.08" stroke="#132e65" stroke-width="1.5"></path><path d="M1310.98 672.02L1606.2 668.94" stroke="#132e65" stroke-width="1.5"></path><path d="M1429.56 -66.85L1429.56 -66.85" stroke="#132e65" stroke-width="1.5"></path><path d="M1429.56 -66.85L1438.56 46.31" stroke="#132e65" stroke-width="1.5"></path><path d="M1429.56 -66.85L1550.54 -100.5" stroke="#132e65" stroke-width="1.5"></path><path d="M1438.56 46.31L1438.56 46.31" stroke="#132e65" stroke-width="1.5"></path><path d="M1438.56 46.31L1586.32 93.95" stroke="#132e65" stroke-width="1.5"></path><path d="M1438.56 46.31L1550.54 -100.5" stroke="#132e65" stroke-width="1.5"></path><path d="M1438.56 46.31L1260.64 102.16" stroke="#132e65" stroke-width="1.5"></path><path d="M1440.66 553.49L1440.66 553.49" stroke="#132e65" stroke-width="1.5"></path><path d="M1440.66 553.49L1554.48 531.08" stroke="#132e65" stroke-width="1.5"></path><path d="M1440.66 553.49L1400.01 708.23" stroke="#132e65" stroke-width="1.5"></path><path d="M1440.66 553.49L1606.2 668.94" stroke="#132e65" stroke-width="1.5"></path><path d="M1440.66 553.49L1295.81 376.4" stroke="#132e65" stroke-width="1.5"></path><path d="M1400.01 708.23L1400.01 708.23" stroke="#132e65" stroke-width="1.5"></path><path d="M1400.01 708.23L1606.2 668.94" stroke="#132e65" stroke-width="1.5"></path><path d="M1400.01 708.23L1554.48 531.08" stroke="#132e65" stroke-width="1.5"></path><path d="M1550.54 -100.5L1550.54 -100.5" stroke="#132e65" stroke-width="1.5"></path><path d="M1550.54 -100.5L1586.32 93.95" stroke="#132e65" stroke-width="1.5"></path><path d="M1550.54 -100.5L1290.89 -107.42" stroke="#132e65" stroke-width="1.5"></path><path d="M1550.54 -100.5L1559.31 223.93" stroke="#132e65" stroke-width="1.5"></path><path d="M1586.32 93.95L1586.32 93.95" stroke="#132e65" stroke-width="1.5"></path><path d="M1586.32 93.95L1559.31 223.93" stroke="#132e65" stroke-width="1.5"></path><path d="M1586.32 93.95L1429.56 -66.85" stroke="#132e65" stroke-width="1.5"></path><path d="M1586.32 93.95L1589.04 348.2" stroke="#132e65" stroke-width="1.5"></path><path d="M1559.31 223.93L1559.31 223.93" stroke="#132e65" stroke-width="1.5"></path><path d="M1559.31 223.93L1589.04 348.2" stroke="#132e65" stroke-width="1.5"></path><path d="M1589.04 348.2L1589.04 348.2" stroke="#132e65" stroke-width="1.5"></path><path d="M1589.04 348.2L1554.48 531.08" stroke="#132e65" stroke-width="1.5"></path><path d="M1589.04 348.2L1440.66 553.49" stroke="#132e65" stroke-width="1.5"></path><path d="M1554.48 531.08L1554.48 531.08" stroke="#132e65" stroke-width="1.5"></path><path d="M1554.48 531.08L1606.2 668.94" stroke="#132e65" stroke-width="1.5"></path><path d="M1606.2 668.94L1606.2 668.94" stroke="#132e65" stroke-width="1.5"></path><circle r="5" cx="-59.96" cy="385.87" fill="#132e65"></circle><circle r="5" cx="-76.61" cy="501.75" fill="#132e65"></circle><circle r="5" cx="-100.31" cy="638" fill="#132e65"></circle><circle r="5" cx="100.8" cy="544.96" fill="#132e65"></circle><circle r="5" cx="39.24" cy="641.94" fill="#132e65"></circle><circle r="5" cx="213.05" cy="350.29" fill="#132e65"></circle><circle r="5" cx="261.17" cy="505.64" fill="#132e65"></circle><circle r="5" cx="258.31" cy="662.77" fill="#132e65"></circle><circle r="5" cx="410.14" cy="339.94" fill="#132e65"></circle><circle r="5" cx="350.42" cy="510.41" fill="#132e65"></circle><circle r="5" cx="411.52" cy="697.11" fill="#132e65"></circle><circle r="5" cx="519.31" cy="383.13" fill="#132e65"></circle><circle r="5" cx="510.84" cy="499.12" fill="#132e65"></circle><circle r="5" cx="553.07" cy="643.12" fill="#132e65"></circle><circle r="5" cx="660.55" cy="385.91" fill="#132e65"></circle><circle r="5" cx="699.75" cy="541.65" fill="#132e65"></circle><circle r="5" cx="690.83" cy="649.18" fill="#132e65"></circle><circle r="5" cx="861.71" cy="189.53" fill="#132e65"></circle><circle r="5" cx="811.41" cy="345.94" fill="#132e65"></circle><circle r="5" cx="793.17" cy="535.38" fill="#132e65"></circle><circle r="5" cx="802.91" cy="653.49" fill="#132e65"></circle><circle r="5" cx="970.84" cy="-56.14" fill="#132e65"></circle><circle r="5" cx="964.76" cy="65.62" fill="#132e65"></circle><circle r="5" cx="994.22" cy="194.99" fill="#132e65"></circle><circle r="5" cx="1000.54" cy="409.1" fill="#132e65"></circle><circle r="5" cx="951.55" cy="545.13" fill="#132e65"></circle><circle r="5" cx="977.24" cy="691.09" fill="#132e65"></circle><circle r="5" cx="1138.65" cy="-46.71" fill="#132e65"></circle><circle r="5" cx="1152.51" cy="75.4" fill="#132e65"></circle><circle r="5" cx="1135.39" cy="206.71" fill="#132e65"></circle><circle r="5" cx="1109.33" cy="358.06" fill="#132e65"></circle><circle r="5" cx="1125.94" cy="490.24" fill="#132e65"></circle><circle r="5" cx="1150.05" cy="698.34" fill="#132e65"></circle><circle r="5" cx="1290.89" cy="-107.42" fill="#132e65"></circle><circle r="5" cx="1260.64" cy="102.16" fill="#132e65"></circle><circle r="5" cx="1260.44" cy="192.4" fill="#132e65"></circle><circle r="5" cx="1295.81" cy="376.4" fill="#132e65"></circle><circle r="5" cx="1310.98" cy="672.02" fill="#132e65"></circle><circle r="5" cx="1429.56" cy="-66.85" fill="#132e65"></circle><circle r="5" cx="1438.56" cy="46.31" fill="#132e65"></circle><circle r="5" cx="1440.66" cy="553.49" fill="#132e65"></circle><circle r="5" cx="1400.01" cy="708.23" fill="#132e65"></circle><circle r="5" cx="1550.54" cy="-100.5" fill="#132e65"></circle><circle r="5" cx="1586.32" cy="93.95" fill="#132e65"></circle><circle r="5" cx="1559.31" cy="223.93" fill="#132e65"></circle><circle r="5" cx="1589.04" cy="348.2" fill="#132e65"></circle><circle r="5" cx="1554.48" cy="531.08" fill="#132e65"></circle><circle r="5" cx="1606.2" cy="668.94" fill="#132e65"></circle><path d="M-67.47 543.11L-67.47 543.11" stroke="hsl(228.5, 77.2%, 51.5%)" stroke-width="1.5"></path><path d="M-67.47 543.11L45.26 562.5" stroke="hsl(228.5, 77.2%, 51.5%)" stroke-width="1.5"></path><path d="M-67.47 543.11L-84.64 708.59" stroke="hsl(228.5, 77.2%, 51.5%)" stroke-width="1.5"></path><path d="M-67.47 543.11L79.94 644.61" stroke="hsl(228.5, 77.2%, 51.5%)" stroke-width="1.5"></path><path d="M-67.47 543.11L209.75 663.23" stroke="hsl(228.5, 77.2%, 51.5%)" stroke-width="1.5"></path><path d="M-67.47 543.11L240.35 533.44" stroke="hsl(228.5, 77.2%, 51.5%)" stroke-width="1.5"></path><path d="M-67.47 543.11L398.79 500.15" stroke="hsl(228.5, 77.2%, 51.5%)" stroke-width="1.5"></path><path d="M-84.64 708.59L-84.64 708.59" stroke="hsl(228.5, 77.2%, 51.5%)" stroke-width="1.5"></path><path d="M-84.64 708.59L79.94 644.61" stroke="hsl(228.5, 77.2%, 51.5%)" stroke-width="1.5"></path><path d="M411.81 695.31L411.81 695.31" stroke="hsl(228.5, 77.2%, 51.5%)" stroke-width="1.5"></path><path d="M411.81 695.31L521.13 674.02" stroke="hsl(228.5, 77.2%, 51.5%)" stroke-width="1.5"></path><path d="M411.81 695.31L398.79 500.15" stroke="hsl(228.5, 77.2%, 51.5%)" stroke-width="1.5"></path><path d="M521.13 674.02L521.13 674.02" stroke="hsl(228.5, 77.2%, 51.5%)" stroke-width="1.5"></path><path d="M521.13 674.02L686.11 679.22" stroke="hsl(228.5, 77.2%, 51.5%)" stroke-width="1.5"></path><path d="M521.13 674.02L398.79 500.15" stroke="hsl(228.5, 77.2%, 51.5%)" stroke-width="1.5"></path><path d="M521.13 674.02L684.04 537.32" stroke="hsl(228.5, 77.2%, 51.5%)" stroke-width="1.5"></path><path d="M521.13 674.02L524.37 400.56" stroke="hsl(228.5, 77.2%, 51.5%)" stroke-width="1.5"></path><path d="M521.13 674.02L209.75 663.23" stroke="hsl(228.5, 77.2%, 51.5%)" stroke-width="1.5"></path><path d="M695.99 386.07L695.99 386.07" stroke="hsl(228.5, 77.2%, 51.5%)" stroke-width="1.5"></path><path d="M695.99 386.07L801.99 381.03" stroke="hsl(228.5, 77.2%, 51.5%)" stroke-width="1.5"></path><path d="M695.99 386.07L684.04 537.32" stroke="hsl(228.5, 77.2%, 51.5%)" stroke-width="1.5"></path><path d="M695.99 386.07L822.56 496.98" stroke="hsl(228.5, 77.2%, 51.5%)" stroke-width="1.5"></path><path d="M695.99 386.07L524.37 400.56" stroke="hsl(228.5, 77.2%, 51.5%)" stroke-width="1.5"></path><path d="M686.11 679.22L686.11 679.22" stroke="hsl(228.5, 77.2%, 51.5%)" stroke-width="1.5"></path><path d="M686.11 679.22L684.04 537.32" stroke="hsl(228.5, 77.2%, 51.5%)" stroke-width="1.5"></path><path d="M686.11 679.22L831.82 699.14" stroke="hsl(228.5, 77.2%, 51.5%)" stroke-width="1.5"></path><path d="M958.97 697.86L958.97 697.86" stroke="hsl(228.5, 77.2%, 51.5%)" stroke-width="1.5"></path><path d="M958.97 697.86L831.82 699.14" stroke="hsl(228.5, 77.2%, 51.5%)" stroke-width="1.5"></path><path d="M958.97 697.86L992.51 520.85" stroke="hsl(228.5, 77.2%, 51.5%)" stroke-width="1.5"></path><path d="M958.97 697.86L1158.54 651.74" stroke="hsl(228.5, 77.2%, 51.5%)" stroke-width="1.5"></path><path d="M958.97 697.86L822.56 496.98" stroke="hsl(228.5, 77.2%, 51.5%)" stroke-width="1.5"></path><path d="M1308.33 256.44L1308.33 256.44" stroke="hsl(228.5, 77.2%, 51.5%)" stroke-width="1.5"></path><path d="M1308.33 256.44L1421.81 250.48" stroke="hsl(228.5, 77.2%, 51.5%)" stroke-width="1.5"></path><path d="M1308.33 256.44L1288.13 375.54" stroke="hsl(228.5, 77.2%, 51.5%)" stroke-width="1.5"></path><path d="M1308.33 256.44L1156.57 225.83" stroke="hsl(228.5, 77.2%, 51.5%)" stroke-width="1.5"></path><path d="M1288.13 375.54L1288.13 375.54" stroke="hsl(228.5, 77.2%, 51.5%)" stroke-width="1.5"></path><path d="M1288.13 375.54L1250.35 495.7" stroke="hsl(228.5, 77.2%, 51.5%)" stroke-width="1.5"></path><path d="M1288.13 375.54L1147.27 384.74" stroke="hsl(228.5, 77.2%, 51.5%)" stroke-width="1.5"></path><path d="M1288.13 375.54L1461.58 411.5" stroke="hsl(228.5, 77.2%, 51.5%)" stroke-width="1.5"></path><path d="M1447.69 -51.12L1447.69 -51.12" stroke="hsl(228.5, 77.2%, 51.5%)" stroke-width="1.5"></path><path d="M1447.69 -51.12L1540.95 -93.95" stroke="hsl(228.5, 77.2%, 51.5%)" stroke-width="1.5"></path><path d="M1447.69 -51.12L1410.4 48.39" stroke="hsl(228.5, 77.2%, 51.5%)" stroke-width="1.5"></path><path d="M1421.81 250.48L1421.81 250.48" stroke="hsl(228.5, 77.2%, 51.5%)" stroke-width="1.5"></path><path d="M1421.81 250.48L1574.41 248.12" stroke="hsl(228.5, 77.2%, 51.5%)" stroke-width="1.5"></path><path d="M1421.81 250.48L1461.58 411.5" stroke="hsl(228.5, 77.2%, 51.5%)" stroke-width="1.5"></path><path d="M1421.81 250.48L1288.13 375.54" stroke="hsl(228.5, 77.2%, 51.5%)" stroke-width="1.5"></path><path d="M1421.81 250.48L1576.63 369.3" stroke="hsl(228.5, 77.2%, 51.5%)" stroke-width="1.5"></path><path d="M1421.81 250.48L1410.4 48.39" stroke="hsl(228.5, 77.2%, 51.5%)" stroke-width="1.5"></path><path d="M1595.31 99.78L1595.31 99.78" stroke="hsl(228.5, 77.2%, 51.5%)" stroke-width="1.5"></path><path d="M1595.31 99.78L1574.41 248.12" stroke="hsl(228.5, 77.2%, 51.5%)" stroke-width="1.5"></path><path d="M1595.31 99.78L1410.4 48.39" stroke="hsl(228.5, 77.2%, 51.5%)" stroke-width="1.5"></path><path d="M1595.31 99.78L1540.95 -93.95" stroke="hsl(228.5, 77.2%, 51.5%)" stroke-width="1.5"></path><path d="M1595.31 99.78L1447.69 -51.12" stroke="hsl(228.5, 77.2%, 51.5%)" stroke-width="1.5"></path><path d="M1595.31 99.78L1421.81 250.48" stroke="hsl(228.5, 77.2%, 51.5%)" stroke-width="1.5"></path><path d="M1604.94 490.06L1604.94 490.06" stroke="hsl(228.5, 77.2%, 51.5%)" stroke-width="1.5"></path><path d="M1604.94 490.06L1576.63 369.3" stroke="hsl(228.5, 77.2%, 51.5%)" stroke-width="1.5"></path><path d="M1604.94 490.06L1461.58 411.5" stroke="hsl(228.5, 77.2%, 51.5%)" stroke-width="1.5"></path><path d="M1604.94 490.06L1431.09 487.67" stroke="hsl(228.5, 77.2%, 51.5%)" stroke-width="1.5"></path><path d="M1604.94 490.06L1608.67 684.15" stroke="hsl(228.5, 77.2%, 51.5%)" stroke-width="1.5"></path><path d="M1604.94 490.06L1574.41 248.12" stroke="hsl(228.5, 77.2%, 51.5%)" stroke-width="1.5"></path><path d="M45.26 562.5L45.26 562.5" stroke="hsl(228.5, 77.2%, 51.5%)" stroke-width="1.5"></path><path d="M45.26 562.5L79.94 644.61" stroke="hsl(228.5, 77.2%, 51.5%)" stroke-width="1.5"></path><path d="M45.26 562.5L209.75 663.23" stroke="hsl(228.5, 77.2%, 51.5%)" stroke-width="1.5"></path><path d="M79.94 644.61L79.94 644.61" stroke="hsl(228.5, 77.2%, 51.5%)" stroke-width="1.5"></path><path d="M79.94 644.61L209.75 663.23" stroke="hsl(228.5, 77.2%, 51.5%)" stroke-width="1.5"></path><path d="M79.94 644.61L240.35 533.44" stroke="hsl(228.5, 77.2%, 51.5%)" stroke-width="1.5"></path><path d="M240.35 533.44L240.35 533.44" stroke="hsl(228.5, 77.2%, 51.5%)" stroke-width="1.5"></path><path d="M240.35 533.44L209.75 663.23" stroke="hsl(228.5, 77.2%, 51.5%)" stroke-width="1.5"></path><path d="M240.35 533.44L398.79 500.15" stroke="hsl(228.5, 77.2%, 51.5%)" stroke-width="1.5"></path><path d="M240.35 533.44L45.26 562.5" stroke="hsl(228.5, 77.2%, 51.5%)" stroke-width="1.5"></path><path d="M240.35 533.44L411.81 695.31" stroke="hsl(228.5, 77.2%, 51.5%)" stroke-width="1.5"></path><path d="M209.75 663.23L209.75 663.23" stroke="hsl(228.5, 77.2%, 51.5%)" stroke-width="1.5"></path><path d="M209.75 663.23L411.81 695.31" stroke="hsl(228.5, 77.2%, 51.5%)" stroke-width="1.5"></path><path d="M209.75 663.23L398.79 500.15" stroke="hsl(228.5, 77.2%, 51.5%)" stroke-width="1.5"></path><path d="M398.79 500.15L398.79 500.15" stroke="hsl(228.5, 77.2%, 51.5%)" stroke-width="1.5"></path><path d="M398.79 500.15L524.37 400.56" stroke="hsl(228.5, 77.2%, 51.5%)" stroke-width="1.5"></path><path d="M524.37 400.56L524.37 400.56" stroke="hsl(228.5, 77.2%, 51.5%)" stroke-width="1.5"></path><path d="M524.37 400.56L684.04 537.32" stroke="hsl(228.5, 77.2%, 51.5%)" stroke-width="1.5"></path><path d="M524.37 400.56L801.99 381.03" stroke="hsl(228.5, 77.2%, 51.5%)" stroke-width="1.5"></path><path d="M524.37 400.56L822.56 496.98" stroke="hsl(228.5, 77.2%, 51.5%)" stroke-width="1.5"></path><path d="M684.04 537.32L684.04 537.32" stroke="hsl(228.5, 77.2%, 51.5%)" stroke-width="1.5"></path><path d="M684.04 537.32L822.56 496.98" stroke="hsl(228.5, 77.2%, 51.5%)" stroke-width="1.5"></path><path d="M684.04 537.32L801.99 381.03" stroke="hsl(228.5, 77.2%, 51.5%)" stroke-width="1.5"></path><path d="M801.99 381.03L801.99 381.03" stroke="hsl(228.5, 77.2%, 51.5%)" stroke-width="1.5"></path><path d="M801.99 381.03L822.56 496.98" stroke="hsl(228.5, 77.2%, 51.5%)" stroke-width="1.5"></path><path d="M801.99 381.03L996.09 384.04" stroke="hsl(228.5, 77.2%, 51.5%)" stroke-width="1.5"></path><path d="M801.99 381.03L992.51 520.85" stroke="hsl(228.5, 77.2%, 51.5%)" stroke-width="1.5"></path><path d="M822.56 496.98L822.56 496.98" stroke="hsl(228.5, 77.2%, 51.5%)" stroke-width="1.5"></path><path d="M831.82 699.14L831.82 699.14" stroke="hsl(228.5, 77.2%, 51.5%)" stroke-width="1.5"></path><path d="M831.82 699.14L822.56 496.98" stroke="hsl(228.5, 77.2%, 51.5%)" stroke-width="1.5"></path><path d="M996.09 384.04L996.09 384.04" stroke="hsl(228.5, 77.2%, 51.5%)" stroke-width="1.5"></path><path d="M996.09 384.04L992.51 520.85" stroke="hsl(228.5, 77.2%, 51.5%)" stroke-width="1.5"></path><path d="M996.09 384.04L1147.27 384.74" stroke="hsl(228.5, 77.2%, 51.5%)" stroke-width="1.5"></path><path d="M992.51 520.85L992.51 520.85" stroke="hsl(228.5, 77.2%, 51.5%)" stroke-width="1.5"></path><path d="M992.51 520.85L822.56 496.98" stroke="hsl(228.5, 77.2%, 51.5%)" stroke-width="1.5"></path><path d="M992.51 520.85L1147.27 384.74" stroke="hsl(228.5, 77.2%, 51.5%)" stroke-width="1.5"></path><path d="M992.51 520.85L1158.54 651.74" stroke="hsl(228.5, 77.2%, 51.5%)" stroke-width="1.5"></path><path d="M1156.57 225.83L1156.57 225.83" stroke="hsl(228.5, 77.2%, 51.5%)" stroke-width="1.5"></path><path d="M1156.57 225.83L1147.27 384.74" stroke="hsl(228.5, 77.2%, 51.5%)" stroke-width="1.5"></path><path d="M1156.57 225.83L1288.13 375.54" stroke="hsl(228.5, 77.2%, 51.5%)" stroke-width="1.5"></path><path d="M1156.57 225.83L1251.56 39.9" stroke="hsl(228.5, 77.2%, 51.5%)" stroke-width="1.5"></path><path d="M1147.27 384.74L1147.27 384.74" stroke="hsl(228.5, 77.2%, 51.5%)" stroke-width="1.5"></path><path d="M1147.27 384.74L1250.35 495.7" stroke="hsl(228.5, 77.2%, 51.5%)" stroke-width="1.5"></path><path d="M1147.27 384.74L1308.33 256.44" stroke="hsl(228.5, 77.2%, 51.5%)" stroke-width="1.5"></path><path d="M1158.54 651.74L1158.54 651.74" stroke="hsl(228.5, 77.2%, 51.5%)" stroke-width="1.5"></path><path d="M1158.54 651.74L1278.29 673.58" stroke="hsl(228.5, 77.2%, 51.5%)" stroke-width="1.5"></path><path d="M1158.54 651.74L1250.35 495.7" stroke="hsl(228.5, 77.2%, 51.5%)" stroke-width="1.5"></path><path d="M1293.68 -43.14L1293.68 -43.14" stroke="hsl(228.5, 77.2%, 51.5%)" stroke-width="1.5"></path><path d="M1293.68 -43.14L1251.56 39.9" stroke="hsl(228.5, 77.2%, 51.5%)" stroke-width="1.5"></path><path d="M1293.68 -43.14L1410.4 48.39" stroke="hsl(228.5, 77.2%, 51.5%)" stroke-width="1.5"></path><path d="M1293.68 -43.14L1447.69 -51.12" stroke="hsl(228.5, 77.2%, 51.5%)" stroke-width="1.5"></path><path d="M1293.68 -43.14L1540.95 -93.95" stroke="hsl(228.5, 77.2%, 51.5%)" stroke-width="1.5"></path><path d="M1251.56 39.9L1251.56 39.9" stroke="hsl(228.5, 77.2%, 51.5%)" stroke-width="1.5"></path><path d="M1251.56 39.9L1410.4 48.39" stroke="hsl(228.5, 77.2%, 51.5%)" stroke-width="1.5"></path><path d="M1251.56 39.9L1447.69 -51.12" stroke="hsl(228.5, 77.2%, 51.5%)" stroke-width="1.5"></path><path d="M1251.56 39.9L1308.33 256.44" stroke="hsl(228.5, 77.2%, 51.5%)" stroke-width="1.5"></path><path d="M1250.35 495.7L1250.35 495.7" stroke="hsl(228.5, 77.2%, 51.5%)" stroke-width="1.5"></path><path d="M1278.29 673.58L1278.29 673.58" stroke="hsl(228.5, 77.2%, 51.5%)" stroke-width="1.5"></path><path d="M1278.29 673.58L1250.35 495.7" stroke="hsl(228.5, 77.2%, 51.5%)" stroke-width="1.5"></path><path d="M1278.29 673.58L1458.34 703.38" stroke="hsl(228.5, 77.2%, 51.5%)" stroke-width="1.5"></path><path d="M1278.29 673.58L1431.09 487.67" stroke="hsl(228.5, 77.2%, 51.5%)" stroke-width="1.5"></path><path d="M1410.4 48.39L1410.4 48.39" stroke="hsl(228.5, 77.2%, 51.5%)" stroke-width="1.5"></path><path d="M1461.58 411.5L1461.58 411.5" stroke="hsl(228.5, 77.2%, 51.5%)" stroke-width="1.5"></path><path d="M1461.58 411.5L1431.09 487.67" stroke="hsl(228.5, 77.2%, 51.5%)" stroke-width="1.5"></path><path d="M1461.58 411.5L1576.63 369.3" stroke="hsl(228.5, 77.2%, 51.5%)" stroke-width="1.5"></path><path d="M1431.09 487.67L1431.09 487.67" stroke="hsl(228.5, 77.2%, 51.5%)" stroke-width="1.5"></path><path d="M1431.09 487.67L1250.35 495.7" stroke="hsl(228.5, 77.2%, 51.5%)" stroke-width="1.5"></path><path d="M1431.09 487.67L1288.13 375.54" stroke="hsl(228.5, 77.2%, 51.5%)" stroke-width="1.5"></path><path d="M1431.09 487.67L1576.63 369.3" stroke="hsl(228.5, 77.2%, 51.5%)" stroke-width="1.5"></path><path d="M1458.34 703.38L1458.34 703.38" stroke="hsl(228.5, 77.2%, 51.5%)" stroke-width="1.5"></path><path d="M1458.34 703.38L1608.67 684.15" stroke="hsl(228.5, 77.2%, 51.5%)" stroke-width="1.5"></path><path d="M1458.34 703.38L1431.09 487.67" stroke="hsl(228.5, 77.2%, 51.5%)" stroke-width="1.5"></path><path d="M1458.34 703.38L1604.94 490.06" stroke="hsl(228.5, 77.2%, 51.5%)" stroke-width="1.5"></path><path d="M1458.34 703.38L1461.58 411.5" stroke="hsl(228.5, 77.2%, 51.5%)" stroke-width="1.5"></path><path d="M1458.34 703.38L1250.35 495.7" stroke="hsl(228.5, 77.2%, 51.5%)" stroke-width="1.5"></path><path d="M1540.95 -93.95L1540.95 -93.95" stroke="hsl(228.5, 77.2%, 51.5%)" stroke-width="1.5"></path><path d="M1540.95 -93.95L1410.4 48.39" stroke="hsl(228.5, 77.2%, 51.5%)" stroke-width="1.5"></path><path d="M1574.41 248.12L1574.41 248.12" stroke="hsl(228.5, 77.2%, 51.5%)" stroke-width="1.5"></path><path d="M1574.41 248.12L1576.63 369.3" stroke="hsl(228.5, 77.2%, 51.5%)" stroke-width="1.5"></path><path d="M1576.63 369.3L1576.63 369.3" stroke="hsl(228.5, 77.2%, 51.5%)" stroke-width="1.5"></path><path d="M1608.67 684.15L1608.67 684.15" stroke="hsl(228.5, 77.2%, 51.5%)" stroke-width="1.5"></path><path d="M1608.67 684.15L1431.09 487.67" stroke="hsl(228.5, 77.2%, 51.5%)" stroke-width="1.5"></path><path d="M1608.67 684.15L1461.58 411.5" stroke="hsl(228.5, 77.2%, 51.5%)" stroke-width="1.5"></path><path d="M1608.67 684.15L1576.63 369.3" stroke="hsl(228.5, 77.2%, 51.5%)" stroke-width="1.5"></path><circle r="25" cx="-67.47" cy="543.11" fill="url(#SvgjsRadialGradient1001)"></circle><circle r="25" cx="-84.64" cy="708.59" fill="url(#SvgjsRadialGradient1001)"></circle><circle r="25" cx="411.81" cy="695.31" fill="url(#SvgjsRadialGradient1001)"></circle><circle r="25" cx="521.13" cy="674.02" fill="url(#SvgjsRadialGradient1001)"></circle><circle r="25" cx="695.99" cy="386.07" fill="url(#SvgjsRadialGradient1001)"></circle><circle r="25" cx="686.11" cy="679.22" fill="url(#SvgjsRadialGradient1001)"></circle><circle r="25" cx="958.97" cy="697.86" fill="url(#SvgjsRadialGradient1001)"></circle><circle r="25" cx="1308.33" cy="256.44" fill="url(#SvgjsRadialGradient1001)"></circle><circle r="25" cx="1288.13" cy="375.54" fill="url(#SvgjsRadialGradient1001)"></circle><circle r="25" cx="1447.69" cy="-51.12" fill="url(#SvgjsRadialGradient1001)"></circle><circle r="25" cx="1421.81" cy="250.48" fill="url(#SvgjsRadialGradient1001)"></circle><circle r="25" cx="1595.31" cy="99.78" fill="url(#SvgjsRadialGradient1001)"></circle><circle r="25" cx="1604.94" cy="490.06" fill="url(#SvgjsRadialGradient1001)"></circle><circle r="5" cx="45.26" cy="562.5" fill="#8b9ad9"></circle><circle r="5" cx="79.94" cy="644.61" fill="#8b9ad9"></circle><circle r="5" cx="240.35" cy="533.44" fill="#8b9ad9"></circle><circle r="5" cx="209.75" cy="663.23" fill="#8b9ad9"></circle><circle r="5" cx="398.79" cy="500.15" fill="#8b9ad9"></circle><circle r="5" cx="524.37" cy="400.56" fill="#8b9ad9"></circle><circle r="5" cx="684.04" cy="537.32" fill="#8b9ad9"></circle><circle r="5" cx="801.99" cy="381.03" fill="#8b9ad9"></circle><circle r="5" cx="822.56" cy="496.98" fill="#8b9ad9"></circle><circle r="5" cx="831.82" cy="699.14" fill="#8b9ad9"></circle><circle r="5" cx="996.09" cy="384.04" fill="#8b9ad9"></circle><circle r="5" cx="992.51" cy="520.85" fill="#8b9ad9"></circle><circle r="5" cx="1156.57" cy="225.83" fill="#8b9ad9"></circle><circle r="5" cx="1147.27" cy="384.74" fill="#8b9ad9"></circle><circle r="5" cx="1158.54" cy="651.74" fill="#8b9ad9"></circle><circle r="5" cx="1293.68" cy="-43.14" fill="#8b9ad9"></circle><circle r="5" cx="1251.56" cy="39.9" fill="#8b9ad9"></circle><circle r="5" cx="1250.35" cy="495.7" fill="#8b9ad9"></circle><circle r="5" cx="1278.29" cy="673.58" fill="#8b9ad9"></circle><circle r="5" cx="1410.4" cy="48.39" fill="#8b9ad9"></circle><circle r="5" cx="1461.58" cy="411.5" fill="#8b9ad9"></circle><circle r="5" cx="1431.09" cy="487.67" fill="#8b9ad9"></circle><circle r="5" cx="1458.34" cy="703.38" fill="#8b9ad9"></circle><circle r="5" cx="1540.95" cy="-93.95" fill="#8b9ad9"></circle><circle r="5" cx="1574.41" cy="248.12" fill="#8b9ad9"></circle><circle r="5" cx="1576.63" cy="369.3" fill="#8b9ad9"></circle><circle r="5" cx="1608.67" cy="684.15" fill="#8b9ad9"></circle></g><defs><mask id="SvgjsMask1000"><rect width="1440" height="560" fill="#ffffff"></rect></mask><radialGradient id="SvgjsRadialGradient1001"><stop stop-color="#ffffff" offset="0.1"></stop><stop stop-color="#1735b3" offset="0.2"></stop><stop stop-color="rgba(23, 53, 179, 0)" offset="1"></stop></radialGradient></defs></svg>