<svg xmlns="http://www.w3.org/2000/svg" version="1.1" xmlns:xlink="http://www.w3.org/1999/xlink" xmlns:svgjs="http://svgjs.com/svgjs" width="1440" height="250" preserveAspectRatio="none" viewBox="0 0 1440 250"><g mask="url(&quot;#SvgjsMask1000&quot;)" fill="none"><rect width="1440" height="250" x="0" y="0" fill="#0e2a47"></rect><path d="M27 250L277 0L434.5 0L184.5 250z" fill="url(#SvgjsLinearGradient1001)"></path><path d="M255.60000000000002 250L505.6 0L778.6 0L528.6 250z" fill="url(#SvgjsLinearGradient1001)"></path><path d="M521.2 250L771.2 0L1012.7 0L762.7 250z" fill="url(#SvgjsLinearGradient1001)"></path><path d="M715.8000000000001 250L965.8000000000001 0L1246.3000000000002 0L996.3000000000001 250z" fill="url(#SvgjsLinearGradient1001)"></path><path d="M1427 250L1177 0L1027 0L1277 250z" fill="url(#SvgjsLinearGradient1002)"></path><path d="M1163.4 250L913.4000000000001 0L719.9000000000001 0L969.9000000000001 250z" fill="url(#SvgjsLinearGradient1002)"></path><path d="M946.8 250L696.8 0L339.79999999999995 0L589.8 250z" fill="url(#SvgjsLinearGradient1002)"></path><path d="M686.1999999999999 250L436.19999999999993 0L137.69999999999993 0L387.69999999999993 250z" fill="url(#SvgjsLinearGradient1002)"></path><path d="M1208.9577815098112 250L1440 18.957781509811184L1440 250z" fill="url(#SvgjsLinearGradient1001)"></path><path d="M0 250L231.04221849018882 250L 0 18.957781509811184z" fill="url(#SvgjsLinearGradient1002)"></path></g><defs><mask id="SvgjsMask1000"><rect width="1440" height="250" fill="#ffffff"></rect></mask><linearGradient x1="0%" y1="100%" x2="100%" y2="0%" id="SvgjsLinearGradient1001"><stop stop-color="rgba(15, 70, 185, 0.2)" offset="0"></stop><stop stop-opacity="0" stop-color="rgba(15, 70, 185, 0.2)" offset="0.66"></stop></linearGradient><linearGradient x1="100%" y1="100%" x2="0%" y2="0%" id="SvgjsLinearGradient1002"><stop stop-color="rgba(15, 70, 185, 0.2)" offset="0"></stop><stop stop-opacity="0" stop-color="rgba(15, 70, 185, 0.2)" offset="0.66"></stop></linearGradient></defs></svg>