<svg xmlns="http://www.w3.org/2000/svg" version="1.1" xmlns:xlink="http://www.w3.org/1999/xlink" xmlns:svgjs="http://svgjs.com/svgjs" width="1440" height="560" preserveAspectRatio="none" viewBox="0 0 1440 560"><g mask="url(&quot;#SvgjsMask1002&quot;)" fill="none"><rect width="1440" height="560" x="0" y="0" fill="url(#SvgjsLinearGradient1003)"></rect><path d="M1440 0L1407.59 0L1440 227.69z" fill="rgba(255, 255, 255, .1)"></path><path d="M1407.59 0L1440 227.69L1440 332.92L1309.7199999999998 0z" fill="rgba(255, 255, 255, .075)"></path><path d="M1309.72 0L1440 332.92L1440 468.67L959.05 0z" fill="rgba(255, 255, 255, .05)"></path><path d="M959.05 0L1440 468.67L1440 501.73L736.29 0z" fill="rgba(255, 255, 255, .025)"></path><path d="M0 560L695.93 560L0 413.9z" fill="rgba(0, 0, 0, .1)"></path><path d="M0 413.9L695.93 560L717.16 560L0 311.96999999999997z" fill="rgba(0, 0, 0, .075)"></path><path d="M0 311.97L717.16 560L1030.44 560L0 307.33000000000004z" fill="rgba(0, 0, 0, .05)"></path><path d="M0 307.33000000000004L1030.44 560L1105.26 560L0 219.78000000000003z" fill="rgba(0, 0, 0, .025)"></path></g><defs><mask id="SvgjsMask1002"><rect width="1440" height="560" fill="#ffffff"></rect></mask><linearGradient x1="15.28%" y1="-39.29%" x2="84.72%" y2="139.29%" gradientUnits="userSpaceOnUse" id="SvgjsLinearGradient1003"><stop stop-color="#0e2a47" offset="0"></stop><stop stop-color="#00459e" offset="1"></stop></linearGradient></defs></svg>